<?xml version="1.0" encoding="UTF-8"?>
<svg id="Layer_2" data-name="Layer 2" xmlns="http://www.w3.org/2000/svg" width="546.33" height="119.97" viewBox="0 0 546.33 119.97">
  <defs>
    <style>
      .cls-1 {
        fill: #1e90ff;
      }

      .cls-2 {
        fill: #0b1f3b;
      }
    </style>
  </defs>
  <g id="App_Icon" data-name="App Icon">
    <g>
      <g>
        <path class="cls-2" d="M47.12,50.67h-26.61v25.83H6.95V13.5h13.56v24.84h26.61V13.5h13.56v63h-13.56v-25.83Z"/>
        <path class="cls-2" d="M67.38,52.29c0-14.58,10.46-24.93,24.77-24.93s24.69,10.35,24.69,24.93-10.38,24.93-24.69,24.93-24.77-10.35-24.77-24.93ZM103.62,52.29c0-8.37-4.94-13.41-11.47-13.41s-11.55,5.04-11.55,13.41,5.02,13.41,11.55,13.41,11.47-5.04,11.47-13.41Z"/>
        <path class="cls-2" d="M122.62,9.72h13.06v66.78h-13.06V9.72Z"/>
        <path class="cls-2" d="M141.7,52.29c0-15.21,9.79-24.93,22.51-24.93,5.52,0,10.13,1.89,13.47,5.85V9.72h13.06v66.78h-12.47v-5.58c-3.26,4.23-8.03,6.3-14.06,6.3-12.72,0-22.51-9.72-22.51-24.93ZM177.94,52.29c0-8.37-5.02-13.41-11.47-13.41s-11.55,5.04-11.55,13.41,5.02,13.41,11.55,13.41,11.47-5.04,11.47-13.41Z"/>
        <path class="cls-2" d="M198.28,13.5c0-4.41,3.35-7.83,8.12-7.83s8.2,3.24,8.2,7.56c0,4.68-3.26,8.1-8.2,8.1s-8.12-3.42-8.12-7.83ZM199.87,28.08h13.06v48.42h-13.06V28.08Z"/>
        <path class="cls-2" d="M222.14,28.08h12.47v5.76c3.52-4.23,8.79-6.48,14.9-6.48,10.63,0,18.66,6.66,18.66,21.42v27.72h-13.06v-25.56c0-7.83-3.35-11.43-9.12-11.43-6.28,0-10.8,4.14-10.8,13.05v23.94h-13.06V28.08Z"/>
        <path class="cls-2" d="M276.46,88.02l5.19-10.08c3.85,3.33,10.13,5.49,15.9,5.49,9.21,0,13.22-4.5,13.22-13.23v-2.07c-3.35,4.05-8.37,6.03-14.23,6.03-12.47,0-22.51-9.27-22.51-23.4s10.04-23.4,22.51-23.4c6.28,0,11.47,2.25,14.9,6.84v-6.12h12.39v40.32c0,18-9.04,26.28-25.28,26.28-8.54,0-16.82-2.25-22.1-6.66ZM310.94,50.76c0-7.11-4.94-11.88-11.8-11.88s-11.88,4.77-11.88,11.88,5.02,11.88,11.88,11.88,11.8-4.77,11.8-11.88Z"/>
        <path class="cls-2" d="M328.69,72l4.35-10.08c4.02,2.79,10.13,4.68,15.65,4.68,6.03,0,8.29-1.71,8.29-4.41,0-3.06-4.1-3.78-9.12-4.59-7.95-1.17-18.08-2.79-18.08-14.58,0-9.18,7.7-15.66,20.84-15.66,6.19,0,13.06,1.53,17.33,4.23l-4.35,9.99c-4.44-2.7-8.87-3.6-12.97-3.6-5.86,0-8.37,1.98-8.37,4.5,0,8.28,27.2.27,27.2,19.35,0,9-7.78,15.39-21.26,15.39-7.62,0-15.32-2.25-19.5-5.22Z"/>
      </g>
      <g>
        <path class="cls-1" d="M416.42,50.67h-26.61v25.83h-13.56V13.5h13.56v24.84h26.61V13.5h13.56v63h-13.56v-25.83Z"/>
        <path class="cls-1" d="M439.78,55.44v-27.36h13.06v25.29c0,8.1,3.35,11.7,9.12,11.7s10.38-4.14,10.38-13.05v-23.94h13.06v48.42h-12.39v-5.67c-3.43,4.23-8.54,6.39-13.98,6.39-11.3,0-19.25-6.84-19.25-21.78Z"/>
        <path class="cls-1" d="M507.07,70.92v5.58h-12.47V9.72h13.06v23.49c3.35-3.96,7.95-5.85,13.56-5.85,12.64,0,22.43,9.72,22.43,24.93s-9.79,24.93-22.43,24.93c-6.03,0-10.88-2.07-14.14-6.3ZM530.42,52.29c0-8.37-4.94-13.41-11.47-13.41s-11.47,5.04-11.47,13.41,4.94,13.41,11.47,13.41,11.47-5.04,11.47-13.41Z"/>
      </g>
    </g>
  </g>
</svg>