<?xml version="1.0" encoding="UTF-8"?>
<svg id="Layer_1" data-name="Layer 1" xmlns="http://www.w3.org/2000/svg" viewBox="0 0 32 28.46">
  <defs>
    <style>
      .cls-1 {
        fill: #fff;
        fill-rule: evenodd;
      }

      .cls-2 {
        fill: #1a4474;
      }
    </style>
  </defs>
  <rect class="cls-2" x="0" width="32" height="28.46" rx="4.3" ry="4.3"/>
  <path class="cls-1" d="M7.74,6.43h16.89c.42,0,.77.34.77.77s-.34.77-.77.77H7.74c-.43,0-.77-.34-.77-.77s.34-.77.77-.77Z"/>
  <path class="cls-1" d="M13.88,11.04c.42,0,.77.34.77.77v6.14c0,.42-.34.77-.77.77s-.77-.34-.77-.77v-6.14c0-.42.34-.77.77-.77Z"/>
  <path class="cls-1" d="M18.48,11.04c.42,0,.77.34.77.77v6.14c0,.42-.34.77-.77.77s-.77-.34-.77-.77v-6.14c0-.42.34-.77.77-.77Z"/>
  <path class="cls-1" d="M9.27,6.43c.42,0,.77.34.77.77v14.59h12.28V7.2c0-.42.34-.77.77-.77s.77.34.77.77v14.59c0,.41-.16.8-.45,1.09-.29.29-.68.45-1.08.45h-12.28c-.41,0-.8-.16-1.09-.45-.29-.29-.44-.68-.44-1.09V7.2c0-.42.34-.77.77-.77Z"/>
  <path class="cls-1" d="M12.25,4.04c.43-.43,1.02-.67,1.63-.67h4.6c.62,0,1.2.24,1.63.67.44.43.67,1.02.67,1.63v1.54c0,.42-.34.77-.77.77s-.77-.34-.77-.77v-1.54c0-.2-.08-.4-.22-.54-.14-.14-.34-.23-.55-.23h-4.6c-.2,0-.4.08-.55.23-.14.14-.22.34-.22.54v1.54c0,.42-.34.77-.77.77s-.77-.34-.77-.77v-1.54c0-.61.24-1.2.67-1.63Z"/>
</svg>