<?xml version="1.0" encoding="UTF-8"?>
<svg id="Layer_1" data-name="Layer 1" xmlns="http://www.w3.org/2000/svg" viewBox="0 0 32 28.46">
  <defs>
    <style>
      .cls-1 {
        fill: #fff;
      }

      .cls-2 {
        fill: #1a4474;
      }
    </style>
  </defs>
  <rect class="cls-2" width="32" height="28.46" rx="4.3" ry="4.3"/>
  <path class="cls-1" d="M11.7,23.4h-4.14c-.46,0-.77-.31-.77-.77v-4.14c0-.23.08-.38.23-.54l11.21-11.21c.46-.46.77-.77,1.15-.84.38-.15.77-.15,1.15,0,.39.15.69.38,1.15.84l1.84,1.84c.46.46.77.77.84,1.15.16.38.16.77,0,1.15-.15.38-.38.69-.84,1.15l-3,2.99-8.29,8.14c-.15.15-.31.23-.54.23ZM8.33,21.87h3.07l7.52-7.52-3.07-3.07-7.52,7.52v3.07ZM16.92,10.2l3.07,3.07,2.46-2.46c.15-.23.38-.46.46-.54v-.15c0-.08-.31-.31-.54-.54l-1.76-1.77c-.23-.23-.46-.46-.54-.54h-.16c-.07,0-.3.31-.53.54l-2.46,2.38Z"/>
</svg>