<?xml version="1.0" encoding="UTF-8"?>
<svg id="Layer_1" data-name="Layer 1" xmlns="http://www.w3.org/2000/svg" viewBox="0 0 32 25.95">
  <defs>
    <style>
      .cls-1 {
        fill: #c62828;
        fill-rule: evenodd;
      }
    </style>
  </defs>
  <path class="cls-1" d="M.41,8.34c.52-.48,1.33-.44,1.81.08l13.76,14.97,13.8-14.97c.48-.52,1.29-.55,1.81-.07.52.48.55,1.29.08,1.81l-13.8,14.97c-1.02,1.1-2.76,1.1-3.77,0L.34,10.15c-.48-.52-.44-1.33.08-1.81Z"/>
  <path class="cls-1" d="M.41.34c.52-.48,1.33-.44,1.81.08l13.76,14.97L29.78.41c.48-.52,1.29-.55,1.81-.07.52.48.55,1.29.08,1.81l-13.8,14.97c-1.02,1.1-2.76,1.1-3.77,0L.34,2.15C-.14,1.63-.11.82.41.34Z"/>
</svg>