<?xml version="1.0" encoding="UTF-8"?>
<svg id="Layer_1" data-name="Layer 1" xmlns="http://www.w3.org/2000/svg" viewBox="0 0 32 25.95">
  <defs>
    <style>
      .cls-1 {
        fill: #2e7d32;
        fill-rule: evenodd;
      }
    </style>
  </defs>
  <path class="cls-1" d="M31.59,17.61c-.52.48-1.33.44-1.81-.08L16.03,2.56,2.22,17.54c-.48.52-1.29.55-1.81.07-.52-.48-.55-1.29-.08-1.81L14.14.83c1.02-1.1,2.76-1.1,3.77,0l13.75,14.97c.48.52.44,1.33-.08,1.81Z"/>
  <path class="cls-1" d="M31.59,25.61c-.52.48-1.33.44-1.81-.08l-13.76-14.97L2.22,25.54c-.48.52-1.29.55-1.81.07-.52-.48-.55-1.29-.08-1.81l13.8-14.97c1.02-1.1,2.76-1.1,3.77,0l13.75,14.97c.48.52.44,1.33-.08,1.81Z"/>
</svg>